<svg id="Capa_1" enable-background="new 0 0 510.574 510.574" height="512" viewBox="0 0 510.574 510.574" width="512" xmlns="http://www.w3.org/2000/svg"><g><g><g><path d="m83.495 8.067h375.009v164.956h-375.009z" fill="#bdedd4"/></g><g><path d="m106.495 150.545v-142.478h-23v164.956h375.009v-22.478z" fill="#52cd8d"/></g><g><path d="m53.495 173.023v-104.956h269.51l75.5 74.5v30.456" fill="#fff"/></g><g><path d="m76.495 149.878v-81.811h-23v104.956h345.01v-23.145z" fill="#cad8eb"/></g><g><path d="m7.5 173.023h495.574v329.484h-495.574z" fill="#e8bc85"/></g><g><path d="m30.791 481.507v-308.484h-23.291v329.484h495.574v-21z" fill="#b45e2e"/></g><g><path d="m187.796 217.663h134.981v44.807h-134.981z" fill="#fff"/></g><g><path d="m210.505 240.067v-22.404h-22.709v44.807h134.981v-22.403z" fill="#cad8eb"/></g><g><path d="m195.495 442.724h-22.323v-89.665h165.315v89.665h-127.991" fill="#c8d1da"/></g><g><path d="m232.829 420.723h-15.001-22.323v-67.664h-22.333v89.665h22.323 15.001 127.991v-22.001z" fill="#adb9c8"/></g><g><path d="m30.996 195.067h15v15h-15z" fill="#fff"/></g><g><path d="m323.005 68.067v74.666h75.5" fill="#cad8eb"/></g><g><path d="m68.828 68.067v-30h359.676v134.956h-29.999v-30.29l-75.5-74.666z" fill="#f0d5b3"/></g><g><g><path d="m347.586 60.812h-31.836l82.755 81.921v30.29h21.829v-44.956z" fill="#e8bc85"/></g><g><path d="m68.828 38.067h21.829v30h-21.829z" fill="#e8bc85"/></g></g><g><path d="m30.996 225.067h15v75h-15z" fill="#fff"/></g><g><path d="m83.495 97.4h74.333v30.667h-74.333z" fill="#e08ea2"/></g></g><g><path d="m466.004 165.523v-164.956h-390.009v30h-14.667v30.001h-15.333v104.955h-45.995v344.484h510.574v-269.936h-15v254.937h-480.574v-314.485h480.574v14.542h15v-29.542zm-389.676-119.956h284.167v-15h-269.5v-15h360.009v149.956h-15v-134.956h-30.51v15h15.51v119.956h-14.999v-26.092l-79.923-78.863h-249.754zm254.177 40.438 49.891 49.229h-49.891zm-269.51-10.437h254.51v74.666h75.5v15.289h-330.01z"/><path d="m495.574 210.062h15v15.006h-15z"/><path d="m180.296 210.163v59.807h149.98v-59.807zm134.981 44.807h-119.98v-29.807h119.98z"/><path d="m345.987 345.559h-180.315v104.665h29.823v-15h-14.823v-74.665h150.315v74.665h-120.491v15h135.491z"/><path d="m195.504 374.891h15v15h-15z"/><path d="m225.504 374.891h89.982v15h-89.982z"/><path d="m225.504 405.558h89.982v15h-89.982z"/><path d="m375.496 30.567h15v15h-15z"/><path d="m75.995 135.567h89.333v-45.667h-89.333zm15-30.667h59.333v15.667h-59.333z"/></g></g></svg>